<?xml version="1.0" encoding="UTF-8"?>
<svg version="1.1" xmlns="http://www.w3.org/2000/svg" width="1061" height="306">
<path d="M0 0 C3.03842467 2.6880822 5.49783151 5.60110205 6.875 9.4375 C6.91625 10.283125 6.9575 11.12875 7 12 C7.0825 13.19625 7.165 14.3925 7.25 15.625 C7.20909674 20.96287536 5.56333646 25.93776764 4 31 C3.06800781 30.95359375 2.13601563 30.9071875 1.17578125 30.859375 C-7.97248488 30.60037454 -15.32868927 31.72449645 -24 35 C-23.7834375 35.69480469 -23.566875 36.38960937 -23.34375 37.10546875 C-19.66534635 50.54185986 -18.59403562 66.9118757 -24 80 C-24.49306641 81.24910156 -24.49306641 81.24910156 -24.99609375 82.5234375 C-32.06630194 98.42528984 -46.52493044 107.53964528 -62 114 C-71.96065549 117.28645356 -82.01907556 118.14901666 -92.4375 118.5625 C-93.45521484 118.60568359 -94.47292969 118.64886719 -95.52148438 118.69335938 C-98.01421028 118.79868582 -100.50702338 118.90081672 -103 119 C-105.07198341 125.00087284 -105.07198341 125.00087284 -104 131 C-100.5624306 132.71793024 -97.7295308 133.25236434 -93.9128418 133.27124023 C-92.42925423 133.28652016 -92.42925423 133.28652016 -90.91569519 133.30210876 C-89.85425797 133.30424881 -88.79282074 133.30638885 -87.69921875 133.30859375 C-85.41861757 133.33378364 -83.13801867 133.35918116 -80.85742188 133.38476562 C-77.28801235 133.41330529 -73.71864321 133.43733454 -70.14916992 133.45629883 C-28.66687899 133.71941226 -28.66687899 133.71941226 -15 146.375 C-7.31805262 155.02887259 -5.60601252 165.81718312 -6.15234375 177.1640625 C-7.09472302 183.53634135 -9.3951753 188.69402207 -13 194 C-13.39703125 194.59296875 -13.7940625 195.1859375 -14.203125 195.796875 C-27.09748567 212.73043298 -51.90404291 219.54300174 -71.8425293 222.34008789 C-81.94199447 223.65123009 -91.81283356 224.58271841 -102 224 C-102.78938965 223.95746094 -103.5787793 223.91492188 -104.39208984 223.87109375 C-120.56904747 222.91896948 -136.54950226 220.75357731 -150 211 C-151.60875 209.88625 -151.60875 209.88625 -153.25 208.75 C-159.31270971 202.68729029 -162.49751788 196.22581405 -163.3125 187.75 C-162.33183704 175.98204447 -153.63989869 167.26023234 -146 159 C-146.34933594 158.50371094 -146.69867187 158.00742188 -147.05859375 157.49609375 C-150.06323964 153.01040428 -152.09414249 149.55440697 -152 144 C-149.23224423 130.55661482 -138.48388539 119.28493368 -130 109 C-130.73347656 108.73574219 -131.46695313 108.47148437 -132.22265625 108.19921875 C-144.96258118 102.69829477 -151.77523219 91.17793103 -157 79 C-162.06155568 65.25894568 -161.55584461 49.58649789 -155.78125 36.16796875 C-147.94100127 20.59636363 -134.298384 9.96896662 -117.9921875 4.30224609 C-92.51249425 -3.56327708 -66.21248691 0.74896524 -43 13 C-42.38125 12.154375 -41.7625 11.30875 -41.125 10.4375 C-31.40320118 -1.18459377 -13.97908495 -8.49362124 0 0 Z M-107.8125 36.25 C-114.00036691 44.02903269 -114.62536858 52.44575782 -114 62 C-112.71406683 70.03163342 -109.73913782 79.26792897 -103.125 84.4765625 C-101.06773307 85.71326258 -101.06773307 85.71326258 -98 87 C-97.34 87.33 -96.68 87.66 -96 88 C-88.2111285 88.75177399 -80.65986717 88.45962686 -74 84 C-66.01089531 75.1322565 -66.37538486 65.56642192 -66.82519531 54.23876953 C-67.47072692 45.97127679 -71.90578751 39.40699278 -78 34 C-87.10096875 28.28958824 -99.57479091 29.65983273 -107.8125 36.25 Z M-114 166 C-116.47948077 172.01757408 -118.24121765 178.49509209 -116 184.875 C-112.65236928 190.105673 -108.37188829 191.83188333 -102.5625 193.25 C-87.92428997 195.74920659 -69.90483392 194.87004537 -57.046875 186.76953125 C-54.26863009 184.57795456 -51.91497525 182.45657315 -51 179 C-50.83974601 175.45421315 -50.83974601 175.45421315 -52 172 C-62.9222905 163.18862224 -81.16222132 165.75181174 -94.4375 165.875 C-96.34439629 165.88505935 -98.25129778 165.89417993 -100.15820312 165.90234375 C-104.77226664 165.92410132 -109.38607389 165.95846476 -114 166 Z " fill="#0C83C5" transform="translate(683,70)"/>
<path d="M0 0 C1.175625 -0.01675781 2.35125 -0.03351563 3.5625 -0.05078125 C8.82109024 0.50495613 12.00107243 2.33627533 15.75 6 C20.16708191 11.79920109 20.26969445 17.78181821 19.484375 24.72265625 C18.87335366 27.98964938 17.95055839 31.1296877 17 34.3125 C16.04480469 34.27769531 15.08960938 34.24289063 14.10546875 34.20703125 C6.65638637 34.05106841 0.33645371 34.31147879 -6.828125 36.65625 C-9 37.3125 -9 37.3125 -12 37.3125 C-11.566875 38.60607422 -11.566875 38.60607422 -11.125 39.92578125 C-6.14785664 56.2915964 -5.81904975 73.45605877 -13.6875 89 C-22.80056955 104.49221823 -37.94857764 114.52594148 -55.1875 119.0625 C-63.39555132 121.03702423 -71.59786468 121.52153086 -80 121.875 C-80.96550781 121.91818359 -81.93101562 121.96136719 -82.92578125 122.00585938 C-85.28374425 122.11091713 -87.64179416 122.21306914 -90 122.3125 C-92.07198341 128.31337284 -92.07198341 128.31337284 -91 134.3125 C-87.58634762 136.01411598 -84.76181758 136.56721036 -80.97290039 136.59960938 C-79.99740738 136.61302368 -79.02191437 136.62643799 -78.01686096 136.64025879 C-76.44810463 136.64817444 -76.44810463 136.64817444 -74.84765625 136.65625 C-73.21007607 136.6781842 -73.21007607 136.6781842 -71.53941345 136.70056152 C-68.0471464 136.74699913 -64.55493337 136.78118637 -61.0625 136.8125 C-15.44523736 137.22717339 -15.44523736 137.22717339 -2 150.3125 C6.41794985 160.49695753 7.11002523 171.61416851 6 184.3125 C4.37657402 192.80007607 -1.00971013 198.38417865 -7 204.3125 C-7.52078125 204.86679687 -8.0415625 205.42109375 -8.578125 205.9921875 C-26.6934031 223.63074776 -57.9579622 227.1995403 -81.9375 227.5625 C-103.22305985 227.22124854 -125.90179353 225.37359941 -142.27734375 210.2421875 C-147.56778806 204.31593016 -150.43178926 197.54351799 -150.26953125 189.578125 C-149.19157401 180.51703518 -143.78948895 173.98474271 -138 167.3125 C-136.99778826 166.10600049 -135.99738071 164.89799625 -135 163.6875 C-134.01 162.511875 -134.01 162.511875 -133 161.3125 C-133.433125 160.961875 -133.86625 160.61125 -134.3125 160.25 C-137.66806596 156.39731316 -139.32953945 152.33501223 -139.1875 147.25 C-137.79230181 138.11066807 -130.70358712 128.35810762 -125 121.3125 C-124.34 121.3125 -123.68 121.3125 -123 121.3125 C-122.7525 120.755625 -122.505 120.19875 -122.25 119.625 C-120.78393985 116.91278873 -118.97010529 114.67662635 -117 112.3125 C-117.86882812 112.08175781 -118.73765625 111.85101563 -119.6328125 111.61328125 C-130.27667726 107.50144022 -138.29658109 96.25073372 -143 86.3125 C-148.42863239 72.38620726 -149.51342584 55.41111751 -144 41.3125 C-136.52156653 25.10922748 -123.41105646 14.64304417 -106.875 8.4375 C-84.58463419 0.64404692 -59.92501807 2.73802784 -38.515625 12.06640625 C-35.918363 13.3529382 -33.4620234 14.78480562 -31 16.3125 C-30.62230469 15.88839844 -30.24460937 15.46429688 -29.85546875 15.02734375 C-21.69851599 6.33550884 -12.16876737 0.04002884 0 0 Z M-97 42.3125 C-101.93413982 50.94724468 -102.23650061 60.18375783 -100.28125 69.875 C-97.66364638 78.99439327 -94.5449332 85.48275515 -86 90.3125 C-79.93260877 92.33496374 -72.63128849 92.17495336 -66.5625 90.125 C-60.13206095 86.85337311 -56.7112598 82.45824624 -54.44140625 75.6328125 C-52.3296653 64.53215655 -53.18065577 52.45801286 -59.578125 42.97265625 C-62.97266238 38.74477524 -66.52011104 35.32877032 -72 34.3125 C-82.36048888 33.394482 -90.00488655 33.9572256 -97 42.3125 Z M-101 169.3125 C-101.50843096 170.87619002 -102.00637606 172.44329153 -102.5 174.01171875 C-102.7784375 174.88401123 -103.056875 175.75630371 -103.34375 176.6550293 C-104.34857225 180.72403607 -104.27314721 184.31908793 -103 188.3125 C-99.05328403 193.81398287 -93.62512207 195.57215817 -87.2265625 196.87890625 C-73.38970478 198.7383387 -55.56143035 198.10348056 -43.7890625 189.7421875 C-40.63670261 186.87289666 -39.15423289 184.75977537 -37.75 180.6875 C-37.70938699 177.18765017 -37.70938699 177.18765017 -40.0625 174.5 C-50.95880883 166.38572746 -68.76415439 169.18900657 -81.75 169.25 C-83.62239463 169.25502635 -85.49479058 169.25958724 -87.3671875 169.26367188 C-91.91149123 169.27458457 -96.45573081 169.29178629 -101 169.3125 Z " fill="#0C83C5" transform="translate(495,66.6875)"/>
<path d="M0 0 C3.4894189 2.99679506 4.81035721 7.03863966 5.66015625 11.42578125 C5.7489047 13.88208976 5.7865345 16.30894168 5.77368164 18.76464844 C5.77382767 19.49675034 5.77397369 20.22885223 5.77412415 20.98313904 C5.77342901 23.39634187 5.76565533 25.80946695 5.7578125 28.22265625 C5.7559469 29.89845742 5.75452367 31.57425913 5.75352478 33.25006104 C5.74971077 37.65591951 5.73989001 42.06174491 5.7288208 46.46759033 C5.71858268 50.96536817 5.71402201 55.46315136 5.70898438 59.9609375 C5.69826675 68.7825666 5.68120372 77.60417117 5.66015625 86.42578125 C6.34727188 85.94027298 7.03438751 85.45476471 7.74232483 84.95454407 C8.64341476 84.32025986 9.5445047 83.68597565 10.47290039 83.0324707 C11.36626602 82.40258743 12.25963165 81.77270416 13.18006897 81.12373352 C24.43567479 73.4177622 37.66330341 70.94989063 51.046875 72.92578125 C67.21354025 76.00181702 78.48131387 83.74519234 87.84375 97.36328125 C100.00258709 117.86334206 101.65986266 143.88293481 96.6328125 166.8203125 C92.57998036 181.84346134 85.65064642 194.39568571 74.66015625 205.42578125 C73.84998047 206.27076172 73.84998047 206.27076172 73.0234375 207.1328125 C59.04797725 220.47462468 39.04435734 222.79056797 20.67578125 222.57421875 C-0.75905087 222.07248246 -22.98146269 216.55344578 -40.33984375 203.42578125 C-42.67638497 199.92096942 -42.46984375 199.2705112 -42.00390625 195.23828125 C-41.01618501 184.65596986 -40.91413071 174.04752102 -40.71484375 163.42578125 C-40.6927182 162.26305695 -40.67059265 161.10033264 -40.64779663 159.90237427 C-39.0695235 82.42426351 -39.0695235 82.42426351 -46.09082031 5.36328125 C-46.3896734 3.03808703 -46.4453859 0.76689798 -46.33984375 -1.57421875 C-31.19718404 -5.58702357 -13.92608049 -9.38556915 0 0 Z M13.66015625 107.42578125 C12.55023567 107.86857422 12.55023567 107.86857422 11.41789246 108.3203125 C8.53450471 109.73430672 6.75155291 110.9673302 4.66015625 113.42578125 C3.36153113 118.9387605 3.61079913 124.34835547 3.78125 129.98046875 C3.7980495 131.60853551 3.81085435 133.23664797 3.81983948 134.86477661 C3.8541011 139.13707506 3.94240834 143.40659157 4.04217529 147.67779541 C4.13447193 152.0413245 4.17539559 156.40530609 4.22070312 160.76953125 C4.31704407 169.32288719 4.47051244 177.87398759 4.66015625 186.42578125 C6.09062123 187.06757679 7.52173766 187.70792047 8.953125 188.34765625 C9.75000732 188.7044043 10.54688965 189.06115234 11.36791992 189.42871094 C18.81740438 192.66906609 27.04208817 193.99208738 35 191.7734375 C42.49015758 188.42371252 46.85602115 182.21878716 49.8515625 174.7734375 C56.20749743 156.31973271 55.42555155 131.32294331 47.7890625 113.37890625 C45.25718573 108.46223268 41.61016426 104.90078526 36.66015625 102.42578125 C28.06967414 101.3481222 21.20089329 103.36247683 13.66015625 107.42578125 Z " fill="#0C83C5" transform="translate(56.33984375,11.57421875)"/>
<path d="M0 0 C0.91652344 -0.020625 1.83304688 -0.04125 2.77734375 -0.0625 C8.81596421 -0.09695718 13.26987934 0.66062761 18.75 3.25 C23.88511347 8.64845262 24.16640335 12.52517357 24.078125 19.80078125 C22.59711758 46.63493622 10.89365039 75.59602416 0.75 100.25 C0.32525391 101.28979004 -0.09949219 102.32958008 -0.53710938 103.40087891 C-11.12526521 129.15817338 -23.36857856 153.8412426 -37.72363281 177.70556641 C-39.07925847 179.96537616 -40.41585239 182.23464301 -41.7421875 184.51171875 C-45.60764556 191.1188868 -49.69631246 197.54380064 -54 203.875 C-54.44819092 204.53886719 -54.89638184 205.20273437 -55.3581543 205.88671875 C-58.01625071 209.73579647 -60.83686552 213.01929168 -64.25 216.25 C-64.745 216.806875 -65.24 217.36375 -65.75 217.9375 C-70.23916505 221.86551942 -76.51048043 222.28356444 -82.25 222.25 C-92.17100613 220.93967844 -100.3750769 214.66050644 -107 207.4375 C-107.7425 206.385625 -108.485 205.33375 -109.25 204.25 C-108.10515208 200.81545623 -107.49068855 200.49632236 -104.625 198.5 C-93.06062745 189.75306217 -83.08973197 178.74188117 -74.57470703 167.04882812 C-73.16546085 165.13520375 -71.70598392 163.26581662 -70.24609375 161.390625 C-69.28613813 160.09591315 -68.32902034 158.79909152 -67.375 157.5 C-66.91504639 156.9225 -66.45509277 156.345 -65.98120117 155.75 C-64.17442007 153.18856057 -63.14747713 151.36252405 -63.44067383 148.1809082 C-64.2096655 145.45400996 -65.20254655 142.88341623 -66.25 140.25 C-66.71476024 138.98528496 -67.17541665 137.7190572 -67.6328125 136.45166016 C-69.27418979 131.93023343 -70.97671992 127.43304924 -72.6875 122.9375 C-72.99612976 122.12453461 -73.30475952 121.31156921 -73.6227417 120.47396851 C-92.44201956 65.99680942 -92.44201956 65.99680942 -123.25 18.25 C-120.66709794 11.61861662 -113.10205222 8.58871839 -106.99609375 5.72265625 C-98.32348065 2.05142739 -90.43064009 -0.5550477 -81.0625 2.25 C-74.49163438 5.14681453 -71.00811404 11.94749757 -68.48852539 18.38330078 C-68.20356201 19.16431152 -67.91859863 19.94532227 -67.625 20.75 C-67.30072021 21.62253418 -66.97644043 22.49506836 -66.64233398 23.39404297 C-57.90533476 47.63554439 -51.16220773 72.67662538 -44.92797852 97.66064453 C-44.75252502 98.36288147 -44.57707153 99.06511841 -44.39630127 99.78863525 C-43.92725757 101.67319706 -43.46307944 103.55896798 -42.99926758 105.44482422 C-42.37024393 108.17722465 -42.37024393 108.17722465 -41.25 110.25 C-35.79892938 92.1554739 -30.73872764 74.04043832 -26.75 55.5625 C-26.58491943 54.80788483 -26.41983887 54.05326965 -26.24975586 53.27578735 C-23.31059632 39.75856899 -20.80370083 26.1400104 -21.125 12.25 C-21.13402344 11.46367188 -21.14304687 10.67734375 -21.15234375 9.8671875 C-21.1751796 7.99464796 -21.21099432 6.12227251 -21.25 4.25 C-13.82181829 0.96445809 -8.13074413 0.04498337 0 0 Z " fill="#0E84C6" transform="translate(1023.25,68.75)"/>
<path d="M0 0 C1.38856201 -0.02030273 1.38856201 -0.02030273 2.80517578 -0.04101562 C10.12865304 0.0060051 16.38918512 1.29124312 22.6875 5.125 C28.45377528 11.23046795 28.22240901 17.86247828 28.0625 25.8125 C28.04606445 27.4982312 28.04606445 27.4982312 28.02929688 29.21801758 C27.91484869 38.33592992 27.61358095 47.44923086 27.3125 56.5625 C24.84498716 85.44224369 24.84498716 85.44224369 32.8125 112.375 C32.8125 113.035 32.8125 113.695 32.8125 114.375 C39.02778779 117.21044151 45.71133659 117.50281994 52.3125 115.6875 C58.53070712 113.09658037 64.05883079 109.12866921 68.8125 104.375 C69.11203892 102.06695511 69.11203892 102.06695511 69.05541992 99.35986328 C69.05849655 98.30920685 69.06157318 97.25855042 69.06474304 96.17605591 C69.05755753 95.02741058 69.05037201 93.87876526 69.04296875 92.6953125 C69.04251053 91.49937469 69.04205231 90.30343689 69.0415802 89.07125854 C69.03854862 86.51722228 69.03063561 83.96318801 69.01831055 81.40917969 C69.00049673 77.60604849 68.99779798 73.80316777 68.99804688 70 C68.97589908 55.1152276 68.63918054 40.26514005 68.03076172 25.39306641 C67.7401123 18.05127579 67.70983424 10.72130574 67.8125 3.375 C75.5394285 0.6363418 82.8623565 0.04907944 91 0 C92.38856201 -0.02030273 92.38856201 -0.02030273 93.80517578 -0.04101562 C100.21052747 0.00011023 107.34523454 0.42946453 112.43823242 4.75610352 C117.11136225 10.0485538 116.97608385 14.99713744 116.9375 21.75 C116.93556641 22.59957275 116.93363281 23.44914551 116.93164062 24.32446289 C116.89864595 29.33919502 116.73589109 34.32921216 116.4519043 39.33544922 C114.55318731 73.07342215 113.87511161 108.16803426 120.8125 141.375 C109.80155278 146.0968116 94.24482655 147.6690471 82.625 144.125 C75.61130251 141.23151644 72.75098998 137.13845179 69.8125 130.375 C69.22984375 130.81070313 68.6471875 131.24640625 68.046875 131.6953125 C51.30426753 143.85739529 33.4811423 149.66279777 12.8125 147.375 C3.48405893 145.78659612 -4.91460397 142.76567272 -11.1875 135.375 C-11.93 134.50875 -12.6725 133.6425 -13.4375 132.75 C-22.81677106 114.66140582 -20.12625045 93.77903838 -19.59423828 74.11547852 C-19.2707015 61.84469019 -19.07080626 49.61672626 -19.55859375 37.34765625 C-19.59500977 36.39803513 -19.63142578 35.448414 -19.66894531 34.47001648 C-20.04129278 26.56854561 -21.15761811 18.85485403 -22.56640625 11.078125 C-23.1875 7.375 -23.1875 7.375 -23.1875 3.375 C-15.4605715 0.6363418 -8.1376435 0.04907944 0 0 Z " fill="#0D84C5" transform="translate(210.1875,83.625)"/>
<path d="M0 0 C6.21589764 3.47358986 9.62178324 8.68754883 11.8125 15.375 C12.6012536 20.84225101 11.76179974 25.64168329 8.8125 30.375 C6.62158042 33.18509251 4.26573077 35.79294661 1.8125 38.375 C1.049375 39.2 0.28625 40.025 -0.5 40.875 C-2.1875 42.375 -2.1875 42.375 -4.1875 42.375 C-4.1875 43.035 -4.1875 43.695 -4.1875 44.375 C-5.48046875 45.6796875 -5.48046875 45.6796875 -7.375 47.25 C-11.11501726 50.42474224 -14.72846666 53.7141306 -18.3125 57.0625 C-22.95331971 61.37806685 -27.67836828 65.57498906 -32.5 69.6875 C-33.08982666 70.19063721 -33.67965332 70.69377441 -34.28735352 71.2121582 C-36.74452446 73.30417251 -39.2061402 75.39073866 -41.671875 77.47265625 C-48.97217256 83.36406244 -48.97217256 83.36406244 -52.8125 91.5625 C-52.48326618 94.54004011 -52.48326618 94.54004011 -49.97021484 95.92480469 C-47.35382339 97.28832155 -44.81098596 98.38683028 -42.0390625 99.390625 C-41.04511475 99.75124023 -40.05116699 100.11185547 -39.02709961 100.48339844 C-37.96628174 100.86012695 -36.90546387 101.23685547 -35.8125 101.625 C-34.1564978 102.21716309 -34.1564978 102.21716309 -32.46704102 102.82128906 C-20.68202396 106.98574856 -8.7363894 110.56065091 3.24951172 114.09326172 C5.43953996 114.74207322 7.62619048 115.40128734 9.8125 116.0625 C11.00875 116.41699219 12.205 116.77148438 13.4375 117.13671875 C20.64907807 119.78263339 26.28581175 123.32162349 29.8125 130.375 C31.03928896 138.43675601 26.64862868 145.24156672 22.20703125 151.71484375 C15.58393536 159.91112156 7.84184529 163.71624097 -2.50390625 165.0078125 C-5.31996981 165.30112619 -5.31996981 165.30112619 -8.375 166.5 C-21.75450604 170.66251299 -34.96334176 161.15883424 -46.5625 155.3125 C-47.54925217 154.81754532 -47.54925217 154.81754532 -48.55593872 154.31259155 C-57.5108214 149.81849442 -66.3618052 145.17708197 -75.11523438 140.30004883 C-81.32411735 136.86801723 -87.608865 133.60617735 -93.93359375 130.39453125 C-94.8028801 129.95246841 -95.67216644 129.51040558 -96.5677948 129.0549469 C-100.95199754 126.82725836 -105.34075609 124.60921781 -109.73608398 122.40356445 C-111.37366789 121.57399243 -113.01112441 120.7441689 -114.6484375 119.9140625 C-115.761334 119.361455 -115.761334 119.361455 -116.89671326 118.79768372 C-124.04757064 115.1550869 -131.66812689 110.87279488 -135.1875 103.375 C-135.48206785 95.71623603 -130.81485608 89.23138547 -125.8125 83.79296875 C-124.17845075 82.17137415 -122.52516954 80.56877723 -120.84765625 78.9921875 C-118.79541781 76.97309829 -116.94119812 74.96497327 -115.07421875 72.78515625 C-110.7494756 67.7871033 -106.10856316 63.10999835 -101.43701172 58.43920898 C-99.94856763 56.94858385 -98.46832723 55.45012983 -96.98828125 53.95117188 C-90.71512413 47.6415293 -84.16297034 41.91313922 -77.1875 36.375 C-76.07870314 35.45214951 -74.97360687 34.52480174 -73.875 33.58984375 C-68.52022912 29.05229808 -63.09600195 24.71857915 -57.375 20.65234375 C-54.83291159 18.83612127 -52.31904713 16.99328458 -49.8125 15.12890625 C-48.22918832 13.96090815 -46.64585491 12.79293951 -45.0625 11.625 C-43.95237549 10.79198364 -43.95237549 10.79198364 -42.81982422 9.94213867 C-35.72465961 4.74305496 -29.09387419 1.21773156 -20.2421875 0.58984375 C-17.9754606 0.43167199 -17.9754606 0.43167199 -15.125 -0.6875 C-9.66793405 -2.42911679 -5.16541846 -2.33465241 0 0 Z " fill="#027EC2" transform="translate(836.1875,70.625)"/>
<path d="M0 0 C6.21589764 3.47358986 9.62178324 8.68754883 11.8125 15.375 C12.6012536 20.84225101 11.76179974 25.64168329 8.8125 30.375 C6.62158042 33.18509251 4.26573077 35.79294661 1.8125 38.375 C1.049375 39.2 0.28625 40.025 -0.5 40.875 C-2.1875 42.375 -2.1875 42.375 -4.1875 42.375 C-4.1875 43.035 -4.1875 43.695 -4.1875 44.375 C-5.48046875 45.6796875 -5.48046875 45.6796875 -7.375 47.25 C-11.11501726 50.42474224 -14.72846666 53.7141306 -18.3125 57.0625 C-22.95331971 61.37806685 -27.67836828 65.57498906 -32.5 69.6875 C-33.08982666 70.19063721 -33.67965332 70.69377441 -34.28735352 71.2121582 C-36.74452446 73.30417251 -39.2061402 75.39073866 -41.671875 77.47265625 C-48.97217256 83.36406244 -48.97217256 83.36406244 -52.8125 91.5625 C-52.48326618 94.54004011 -52.48326618 94.54004011 -49.97021484 95.92480469 C-47.35382339 97.28832155 -44.81098596 98.38683028 -42.0390625 99.390625 C-41.04511475 99.75124023 -40.05116699 100.11185547 -39.02709961 100.48339844 C-37.96628174 100.86012695 -36.90546387 101.23685547 -35.8125 101.625 C-34.1564978 102.21716309 -34.1564978 102.21716309 -32.46704102 102.82128906 C-20.68202396 106.98574856 -8.7363894 110.56065091 3.24951172 114.09326172 C5.43953996 114.74207322 7.62619048 115.40128734 9.8125 116.0625 C11.00875 116.41699219 12.205 116.77148438 13.4375 117.13671875 C20.64907807 119.78263339 26.28581175 123.32162349 29.8125 130.375 C31.03928896 138.43675601 26.64862868 145.24156672 22.20703125 151.71484375 C15.58393536 159.91112156 7.84184529 163.71624097 -2.50390625 165.0078125 C-5.31996981 165.30112619 -5.31996981 165.30112619 -8.375 166.5 C-21.75450604 170.66251299 -34.96334176 161.15883424 -46.5625 155.3125 C-47.54925217 154.81754532 -47.54925217 154.81754532 -48.55593872 154.31259155 C-57.5108214 149.81849442 -66.3618052 145.17708197 -75.11523438 140.30004883 C-81.32411735 136.86801723 -87.608865 133.60617735 -93.93359375 130.39453125 C-94.8028801 129.95246841 -95.67216644 129.51040558 -96.5677948 129.0549469 C-100.95199754 126.82725836 -105.34075609 124.60921781 -109.73608398 122.40356445 C-111.37366789 121.57399243 -113.01112441 120.7441689 -114.6484375 119.9140625 C-115.761334 119.361455 -115.761334 119.361455 -116.89671326 118.79768372 C-124.04757064 115.1550869 -131.66812689 110.87279488 -135.1875 103.375 C-135.48206785 95.71623603 -130.81485608 89.23138547 -125.8125 83.79296875 C-124.17845075 82.17137415 -122.52516954 80.56877723 -120.84765625 78.9921875 C-118.79541781 76.97309829 -116.94119812 74.96497327 -115.07421875 72.78515625 C-110.7494756 67.7871033 -106.10856316 63.10999835 -101.43701172 58.43920898 C-99.94856763 56.94858385 -98.46832723 55.45012983 -96.98828125 53.95117188 C-90.71512413 47.6415293 -84.16297034 41.91313922 -77.1875 36.375 C-76.07870314 35.45214951 -74.97360687 34.52480174 -73.875 33.58984375 C-68.52022912 29.05229808 -63.09600195 24.71857915 -57.375 20.65234375 C-54.83291159 18.83612127 -52.31904713 16.99328458 -49.8125 15.12890625 C-48.22918832 13.96090815 -46.64585491 12.79293951 -45.0625 11.625 C-43.95237549 10.79198364 -43.95237549 10.79198364 -42.81982422 9.94213867 C-35.72465961 4.74305496 -29.09387419 1.21773156 -20.2421875 0.58984375 C-17.9754606 0.43167199 -17.9754606 0.43167199 -15.125 -0.6875 C-9.66793405 -2.42911679 -5.16541846 -2.33465241 0 0 Z M-51.25830078 19.89111328 C-53.97949662 21.98418191 -56.74026923 24.02051455 -59.5 26.0625 C-65.19912422 30.34259598 -70.71763864 34.80684603 -76.1875 39.375 C-77.17492187 40.17550781 -78.16234375 40.97601563 -79.1796875 41.80078125 C-87.27211602 48.45472087 -94.72346103 55.72258094 -102.125 63.125 C-102.62140991 63.62050354 -103.11781982 64.11600708 -103.62927246 64.62652588 C-108.84250573 69.8408376 -113.95516361 75.1063542 -118.75463867 80.70800781 C-120.56937136 82.81926949 -122.47633081 84.83931345 -124.375 86.875 C-128.56546097 91.61168837 -131.91198943 95.99999547 -132.4375 102.4375 C-128.57069107 111.52450099 -117.6847234 115.46166894 -109.3152771 119.48016357 C-105.46165115 121.33162049 -101.62846801 123.22463589 -97.79296875 125.11328125 C-97.0362941 125.48469238 -96.27961945 125.85610352 -95.50001526 126.23876953 C-89.70533892 129.09221797 -84.01509288 132.10129518 -78.375 135.25 C-69.15522622 140.37179184 -59.81819802 145.25336482 -50.44326782 150.08355713 C-48.79266454 150.93425839 -47.14288234 151.78655496 -45.49398804 152.64056396 C-27.73191473 163.13266284 -27.73191473 163.13266284 -8.0625 163.71484375 C2.12496127 159.11854775 7.93994068 151.12011864 12.8125 141.375 C13.32523156 137.09663341 13.38346004 133.51692008 11.4375 129.625 C3.82778319 123.10238559 -5.90190131 120.81242012 -15.375 118.25 C-26.86403091 115.05680176 -38.14893196 111.45831475 -49.375 107.4375 C-50.38051407 107.078909 -50.38051407 107.078909 -51.40634155 106.71307373 C-66.4386013 101.33786975 -66.4386013 101.33786975 -68.5 98.6875 C-69.53429119 95.20852056 -69.55530806 92.69591074 -68.1875 89.375 C-62.30191367 81.06426846 -53.98842025 74.79108256 -46.1875 68.375 C-40.15880992 63.25444291 -34.36654918 57.87982592 -28.5703125 52.5 C-26.37174646 50.46199629 -24.159248 48.44153864 -21.9296875 46.4375 C-10.2714076 36.87362034 -10.2714076 36.87362034 -4.203125 23.67578125 C-4.1666928 18.31114025 -6.18647223 13.96283715 -9 9.5 C-12.92795049 5.68427667 -16.51414669 4.18952049 -21.9375 3.875 C-33.51344382 4.35589974 -42.50375879 13.11889022 -51.25830078 19.89111328 Z " fill="#000000" transform="translate(836.1875,70.625)"/>
<path d="M0 0 C2.375 1.9375 2.375 1.9375 4 5 C4.33601752 9.4242307 3.77660337 12.76276424 1.40625 16.5390625 C-2.05329944 20.07723806 -6.04733367 21.76534708 -10.51171875 23.78515625 C-15.6553344 26.30049724 -17.68542777 28.72989708 -20 34 C-19.87475508 37.63210261 -19.33133391 40.24529497 -17.875 43.5625 C-16.69783659 46.84174092 -16.94453626 48.69288028 -18 52 C-20.125 54.4375 -20.125 54.4375 -23 56 C-27.26630694 56.07756922 -30.00404262 55.28584946 -33.3125 52.6875 C-37.45283085 48.54716915 -38.31783974 45.71723609 -38.4375 39.875 C-38.269091 31.02857441 -35.2984833 25.10428162 -29.1875 18.8125 C-27.80697963 17.52504842 -26.41116541 16.25378637 -25 15 C-24.34773437 14.40445313 -23.69546875 13.80890625 -23.0234375 13.1953125 C-7.13803467 -1.04459044 -7.13803467 -1.04459044 0 0 Z " fill="#38B8FE" transform="translate(761,127)"/>
</svg>
