<svg width="21" height="20" viewBox="0 0 21 20" fill="none" xmlns="http://www.w3.org/2000/svg">
<g clip-path="url(#clip0_43729_89775)">
<path d="M10.5 8.18164V12.0544H15.8818C15.6455 13.2998 14.9363 14.3544 13.8727 15.0635L17.1181 17.5817C19.009 15.8363 20.0999 13.2726 20.0999 10.2272C20.0999 9.51812 20.0363 8.83623 19.9181 8.18175L10.5 8.18164Z" fill="#4285F4"/>
<path d="M4.89714 11.9043L4.16517 12.4646L1.57422 14.4828C3.21967 17.7464 6.59215 20.0009 10.5012 20.0009C13.2011 20.0009 15.4647 19.11 17.1193 17.5828L13.8739 15.0646C12.983 15.6646 11.8466 16.0283 10.5012 16.0283C7.90122 16.0283 5.69219 14.2737 4.90123 11.9101L4.89714 11.9043Z" fill="#34A853"/>
<path d="M1.57265 5.51758C0.890868 6.86298 0.5 8.38118 0.5 9.99933C0.5 11.6175 0.890868 13.1357 1.57265 14.4811C1.57265 14.4901 4.89998 11.8993 4.89998 11.8993C4.69998 11.2993 4.58177 10.663 4.58177 9.99923C4.58177 9.33551 4.69998 8.69918 4.89998 8.09919L1.57265 5.51758Z" fill="#FBBC05"/>
<path d="M10.5014 3.98182C11.9742 3.98182 13.2832 4.49089 14.3287 5.47272L17.1923 2.60912C15.4559 0.990971 13.2014 0 10.5014 0C6.59235 0 3.21967 2.24545 1.57422 5.51819L4.90145 8.10001C5.69231 5.73635 7.90143 3.98182 10.5014 3.98182Z" fill="#EA4335"/>
</g>
<defs>
<clipPath id="clip0_43729_89775">
<rect width="20" height="20" fill="white" transform="translate(0.5)"/>
</clipPath>
</defs>
</svg>
