<svg width="84" height="32" viewBox="0 0 84 32" fill="none" xmlns="http://www.w3.org/2000/svg">
<g clip-path="url(#clip0_40592_50338)">
<rect width="84" height="32" fill="white"/>
<g clip-path="url(#clip1_40592_50338)">
<path d="M14.1952 27.9746C16.3937 27.9746 17.9179 26.9486 18.9732 25.6002V27.5642H21.9925V13.6404H18.9732V15.3112C18.0646 14.1973 16.3644 13.23 14.2831 13.23C10.2672 13.23 7.45312 16.2492 7.45312 20.5877C7.45312 24.9553 10.15 27.9746 14.1952 27.9746ZM10.531 20.5877C10.531 18.0373 12.0846 15.9854 13.99 15.9854H15.8368C17.6542 15.9854 18.8854 17.5684 18.8854 19.415V21.8482C18.8854 23.7535 17.5662 25.2191 15.8368 25.2191H13.99C12.0846 25.2191 10.531 23.1672 10.531 20.5877Z" fill="#0F172A"/>
<path d="M27.9658 27.564H32.4214L37.434 13.6401H34.4734L30.4867 24.6912H30.0176L26.0311 13.6401H22.9531L27.9658 27.564Z" fill="#0F172A"/>
<path d="M43.755 27.9744C46.0121 27.9744 47.4777 27.0949 48.3278 25.6587V27.564H51.3179V13.6401H48.2399V21.8772C48.2399 23.7826 46.9501 25.1016 45.5138 25.1016H43.8429C42.4945 25.1016 41.4685 23.8998 41.4685 21.8772V13.6401H38.3906V22.4049C38.3906 26.0104 40.3839 27.9744 43.755 27.9744Z" fill="#0F172A"/>
<path d="M58.5151 27.9746C62.7363 27.9746 64.6416 26.3917 64.6416 23.5189C64.6416 21.2911 63.4105 19.8548 60.7429 19.5324L57.4599 19.122C56.1994 18.9461 55.6132 18.3305 55.6132 17.4218C55.6132 16.5131 56.2288 15.8095 57.5478 15.8095H59.3067C60.8309 15.8095 61.3293 16.6596 61.4758 17.8615H64.4364C64.3192 14.6663 62.1501 13.23 58.5738 13.23C54.8217 13.23 52.7405 14.7543 52.7405 17.5684C52.7405 19.7082 53.9716 21.3498 56.727 21.6722L59.9808 22.0826C61.2413 22.2584 61.7689 22.874 61.7689 23.7535C61.7689 24.6914 61.1241 25.395 59.7463 25.395H57.8117C56.2288 25.395 55.4665 24.6036 55.32 23.3724H52.3594C52.4766 26.421 54.4699 27.9746 58.5151 27.9746Z" fill="#0F172A"/>
<path fill-rule="evenodd" clip-rule="evenodd" d="M6.58939 27.5641L3.18125 27.5639C1.42438 27.5638 0.000174038 26.1397 0.000154456 24.3827L0 10.5259H3.1074V13.64H6.58939V16.3369H3.1074V24.1429C3.1074 24.4942 3.39223 24.7791 3.74359 24.7791L6.58939 24.7792V27.5641Z" fill="#0F172A"/>
<path fill-rule="evenodd" clip-rule="evenodd" d="M66.2969 9.8557C66.2969 6.62169 68.9185 4 72.1525 4H78.4411C81.6751 4 84.2969 6.62169 84.2969 9.8557C84.2969 13.0897 81.6751 15.7114 78.4411 15.7114H72.1525C68.9185 15.7114 66.2969 13.0897 66.2969 9.8557ZM75.4428 9.8557C75.4428 11.6404 73.9944 13.0873 72.2077 13.0873C70.4209 13.0873 68.9725 11.6404 68.9725 9.8557C68.9725 8.07095 70.4209 6.62414 72.2077 6.62414C73.9944 6.62414 75.4428 8.07095 75.4428 9.8557ZM76.4644 12.9901L81.9617 9.8557L76.4644 6.72132V12.9901Z" fill="#0F172A"/>
</g>
</g>
<defs>
<clipPath id="clip0_40592_50338">
<rect width="84" height="32" fill="white"/>
</clipPath>
<clipPath id="clip1_40592_50338">
<rect width="84.36" height="24" fill="white" transform="translate(0 4)"/>
</clipPath>
</defs>
</svg>
