<svg width="90" height="90" viewBox="0 0 90 90" fill="none" xmlns="http://www.w3.org/2000/svg">
<circle cx="45" cy="45" r="45" fill="url(#paint0_linear_43831_93165)" fill-opacity="0.1"/>
<circle cx="45" cy="45" r="35" fill="url(#paint1_linear_43831_93165)" fill-opacity="0.1"/>
<circle cx="45" cy="45" r="26.25" fill="#18181B" stroke="#F230AA" stroke-width="1.5"/>
<path d="M54.3346 57V54.3333C54.3346 52.9188 53.7727 51.5623 52.7725 50.5621C51.7723 49.5619 50.4158 49 49.0013 49H41.0013C39.5868 49 38.2303 49.5619 37.2301 50.5621C36.2299 51.5623 35.668 52.9188 35.668 54.3333V57" stroke="url(#paint2_linear_43831_93165)" stroke-width="2" stroke-linecap="round" stroke-linejoin="round"/>
<path d="M45.0013 43.6667C47.9468 43.6667 50.3346 41.2789 50.3346 38.3333C50.3346 35.3878 47.9468 33 45.0013 33C42.0558 33 39.668 35.3878 39.668 38.3333C39.668 41.2789 42.0558 43.6667 45.0013 43.6667Z" stroke="url(#paint3_linear_43831_93165)" stroke-width="2" stroke-linecap="round" stroke-linejoin="round"/>
<defs>
<linearGradient id="paint0_linear_43831_93165" x1="1.18815e-06" y1="90" x2="141.84" y2="31.6387" gradientUnits="userSpaceOnUse">
<stop stop-color="#F230AA"/>
<stop offset="1" stop-color="#F9C239"/>
</linearGradient>
<linearGradient id="paint1_linear_43831_93165" x1="10" y1="80" x2="120.32" y2="34.6078" gradientUnits="userSpaceOnUse">
<stop stop-color="#F230AA"/>
<stop offset="1" stop-color="#F9C239"/>
</linearGradient>
<linearGradient id="paint2_linear_43831_93165" x1="35.668" y1="57" x2="53.568" y2="39.8147" gradientUnits="userSpaceOnUse">
<stop stop-color="#F230AA"/>
<stop offset="1" stop-color="#F9C239"/>
</linearGradient>
<linearGradient id="paint3_linear_43831_93165" x1="39.668" y1="43.6667" x2="56.4786" y2="36.7498" gradientUnits="userSpaceOnUse">
<stop stop-color="#F230AA"/>
<stop offset="1" stop-color="#F9C239"/>
</linearGradient>
</defs>
</svg>
